ISO-10303-21;
HEADER;
/* Generated by software containing ST-Developer
 * from STEP Tools, Inc. (www.steptools.com) 
 */

FILE_DESCRIPTION(
/* description */ (''),
/* implementation_level */ '2;1');

FILE_NAME(
/* name */ '/Users/dongibson/Documents/HereLink Antenna.step',
/* time_stamp */ '2020-11-12T15:02:44-08:00',
/* author */ (''),
/* organization */ (''),
/* preprocessor_version */ 'ST-DEVELOPER v18.1',
/* originating_system */ 'Autodesk Translation Framework v9.3.0.1241',
/* authorisation */ '');

FILE_SCHEMA (('AUTOMOTIVE_DESIGN { 1 0 10303 214 3 1 1 }'));
ENDSEC;

DATA;
#10=MECHANICAL_DESIGN_GEOMETRIC_PRESENTATION_REPRESENTATION('',(#17),#1080);
#11=ITEM_DEFINED_TRANSFORMATION($,$,#635,#701);
#12=(
REPRESENTATION_RELATIONSHIP($,$,#1091,#1090)
REPRESENTATION_RELATIONSHIP_WITH_TRANSFORMATION(#11)
SHAPE_REPRESENTATION_RELATIONSHIP()
);
#13=CONTEXT_DEPENDENT_SHAPE_REPRESENTATION(#12,#1089);
#14=NEXT_ASSEMBLY_USAGE_OCCURRENCE('Component2:1','Component2:1',
'Component2:1',#1093,#1094,'Component2:1');
#15=SHAPE_REPRESENTATION_RELATIONSHIP('SRR','None',#1091,#16);
#16=ADVANCED_BREP_SHAPE_REPRESENTATION('',(#18),#1079);
#17=STYLED_ITEM('',(#1104),#18);
#18=MANIFOLD_SOLID_BREP('Body1',#621);
#19=FACE_BOUND('',#120,.T.);
#20=TOROIDAL_SURFACE('',#670,3.5,0.5);
#21=TOROIDAL_SURFACE('',#674,701.5,0.5);
#22=TOROIDAL_SURFACE('',#676,3.49999999999998,0.5);
#23=ELLIPSE('',#666,0.580988504925415,0.5);
#24=ELLIPSE('',#667,0.638122674343484,0.5);
#25=ELLIPSE('',#680,2.73008798560662,2.);
#26=ELLIPSE('',#681,2.93822080079876,2.);
#27=CONICAL_SURFACE('',#641,6.25,0.785398163397446);
#28=CONICAL_SURFACE('',#645,6.25,0.785398163397445);
#29=CONICAL_SURFACE('',#654,2.74999999999998,0.785398163397447);
#30=CONICAL_SURFACE('',#657,702.25,0.785398163397606);
#31=CONICAL_SURFACE('',#661,2.75000000000001,0.785398163397438);
#32=PLANE('',#639);
#33=PLANE('',#640);
#34=PLANE('',#644);
#35=PLANE('',#648);
#36=PLANE('',#649);
#37=PLANE('',#653);
#38=PLANE('',#660);
#39=PLANE('',#664);
#40=PLANE('',#665);
#41=PLANE('',#685);
#42=PLANE('',#689);
#43=PLANE('',#690);
#44=PLANE('',#691);
#45=PLANE('',#692);
#46=PLANE('',#695);
#47=PLANE('',#697);
#48=PLANE('',#699);
#49=PLANE('',#700);
#50=FACE_OUTER_BOUND('',#85,.T.);
#51=FACE_OUTER_BOUND('',#86,.T.);
#52=FACE_OUTER_BOUND('',#87,.T.);
#53=FACE_OUTER_BOUND('',#88,.T.);
#54=FACE_OUTER_BOUND('',#89,.T.);
#55=FACE_OUTER_BOUND('',#90,.T.);
#56=FACE_OUTER_BOUND('',#91,.T.);
#57=FACE_OUTER_BOUND('',#92,.T.);
#58=FACE_OUTER_BOUND('',#93,.T.);
#59=FACE_OUTER_BOUND('',#94,.T.);
#60=FACE_OUTER_BOUND('',#95,.T.);
#61=FACE_OUTER_BOUND('',#96,.T.);
#62=FACE_OUTER_BOUND('',#97,.T.);
#63=FACE_OUTER_BOUND('',#98,.T.);
#64=FACE_OUTER_BOUND('',#99,.T.);
#65=FACE_OUTER_BOUND('',#100,.T.);
#66=FACE_OUTER_BOUND('',#101,.T.);
#67=FACE_OUTER_BOUND('',#102,.T.);
#68=FACE_OUTER_BOUND('',#103,.T.);
#69=FACE_OUTER_BOUND('',#104,.T.);
#70=FACE_OUTER_BOUND('',#105,.T.);
#71=FACE_OUTER_BOUND('',#106,.T.);
#72=FACE_OUTER_BOUND('',#107,.T.);
#73=FACE_OUTER_BOUND('',#108,.T.);
#74=FACE_OUTER_BOUND('',#109,.T.);
#75=FACE_OUTER_BOUND('',#110,.T.);
#76=FACE_OUTER_BOUND('',#111,.T.);
#77=FACE_OUTER_BOUND('',#112,.T.);
#78=FACE_OUTER_BOUND('',#113,.T.);
#79=FACE_OUTER_BOUND('',#114,.T.);
#80=FACE_OUTER_BOUND('',#115,.T.);
#81=FACE_OUTER_BOUND('',#116,.T.);
#82=FACE_OUTER_BOUND('',#117,.T.);
#83=FACE_OUTER_BOUND('',#118,.T.);
#84=FACE_OUTER_BOUND('',#119,.T.);
#85=EDGE_LOOP('',(#403,#404,#405,#406));
#86=EDGE_LOOP('',(#407));
#87=EDGE_LOOP('',(#408,#409,#410,#411));
#88=EDGE_LOOP('',(#412,#413,#414,#415));
#89=EDGE_LOOP('',(#416,#417,#418,#419));
#90=EDGE_LOOP('',(#420,#421,#422,#423));
#91=EDGE_LOOP('',(#424,#425,#426,#427));
#92=EDGE_LOOP('',(#428,#429,#430,#431,#432,#433,#434,#435,#436,#437,#438,
#439,#440));
#93=EDGE_LOOP('',(#441,#442,#443,#444));
#94=EDGE_LOOP('',(#445,#446,#447,#448));
#95=EDGE_LOOP('',(#449,#450,#451,#452));
#96=EDGE_LOOP('',(#453,#454,#455,#456));
#97=EDGE_LOOP('',(#457,#458,#459,#460));
#98=EDGE_LOOP('',(#461,#462,#463,#464));
#99=EDGE_LOOP('',(#465,#466,#467,#468,#469,#470,#471,#472,#473,#474,#475,
#476,#477,#478,#479,#480));
#100=EDGE_LOOP('',(#481,#482,#483,#484));
#101=EDGE_LOOP('',(#485,#486,#487,#488));
#102=EDGE_LOOP('',(#489,#490,#491,#492));
#103=EDGE_LOOP('',(#493,#494,#495,#496));
#104=EDGE_LOOP('',(#497,#498,#499,#500));
#105=EDGE_LOOP('',(#501,#502,#503,#504));
#106=EDGE_LOOP('',(#505,#506,#507,#508));
#107=EDGE_LOOP('',(#509,#510,#511,#512));
#108=EDGE_LOOP('',(#513,#514,#515,#516,#517));
#109=EDGE_LOOP('',(#518,#519,#520,#521));
#110=EDGE_LOOP('',(#522,#523,#524,#525));
#111=EDGE_LOOP('',(#526,#527,#528,#529,#530,#531,#532,#533,#534,#535,#536,
#537,#538));
#112=EDGE_LOOP('',(#539,#540,#541,#542,#543));
#113=EDGE_LOOP('',(#544,#545,#546,#547,#548,#549));
#114=EDGE_LOOP('',(#550,#551,#552,#553));
#115=EDGE_LOOP('',(#554,#555,#556,#557,#558,#559));
#116=EDGE_LOOP('',(#560,#561,#562,#563));
#117=EDGE_LOOP('',(#564,#565,#566,#567));
#118=EDGE_LOOP('',(#568,#569,#570,#571));
#119=EDGE_LOOP('',(#572,#573,#574,#575));
#120=EDGE_LOOP('',(#576));
#121=LINE('',#901,#178);
#122=LINE('',#907,#179);
#123=LINE('',#909,#180);
#124=LINE('',#911,#181);
#125=LINE('',#912,#182);
#126=LINE('',#917,#183);
#127=LINE('',#922,#184);
#128=LINE('',#923,#185);
#129=LINE('',#924,#186);
#130=LINE('',#929,#187);
#131=LINE('',#934,#188);
#132=LINE('',#935,#189);
#133=LINE('',#936,#190);
#134=LINE('',#939,#191);
#135=LINE('',#941,#192);
#136=LINE('',#945,#193);
#137=LINE('',#951,#194);
#138=LINE('',#952,#195);
#139=LINE('',#956,#196);
#140=LINE('',#958,#197);
#141=LINE('',#960,#198);
#142=LINE('',#961,#199);
#143=LINE('',#966,#200);
#144=LINE('',#972,#201);
#145=LINE('',#977,#202);
#146=LINE('',#978,#203);
#147=LINE('',#979,#204);
#148=LINE('',#984,#205);
#149=LINE('',#989,#206);
#150=LINE('',#990,#207);
#151=LINE('',#991,#208);
#152=LINE('',#995,#209);
#153=LINE('',#997,#210);
#154=LINE('',#999,#211);
#155=LINE('',#1001,#212);
#156=LINE('',#1002,#213);
#157=LINE('',#1005,#214);
#158=LINE('',#1007,#215);
#159=LINE('',#1008,#216);
#160=LINE('',#1025,#217);
#161=LINE('',#1031,#218);
#162=LINE('',#1034,#219);
#163=LINE('',#1036,#220);
#164=LINE('',#1037,#221);
#165=LINE('',#1043,#222);
#166=LINE('',#1046,#223);
#167=LINE('',#1048,#224);
#168=LINE('',#1049,#225);
#169=LINE('',#1051,#226);
#170=LINE('',#1053,#227);
#171=LINE('',#1057,#228);
#172=LINE('',#1060,#229);
#173=LINE('',#1063,#230);
#174=LINE('',#1066,#231);
#175=LINE('',#1067,#232);
#176=LINE('',#1069,#233);
#177=LINE('',#1071,#234);
#178=VECTOR('',#710,1.625);
#179=VECTOR('',#717,10.);
#180=VECTOR('',#718,10.);
#181=VECTOR('',#719,10.);
#182=VECTOR('',#720,10.);
#183=VECTOR('',#725,10.);
#184=VECTOR('',#730,10.);
#185=VECTOR('',#731,10.);
#186=VECTOR('',#732,10.);
#187=VECTOR('',#737,10.);
#188=VECTOR('',#742,10.);
#189=VECTOR('',#743,10.);
#190=VECTOR('',#744,10.);
#191=VECTOR('',#747,10.);
#192=VECTOR('',#748,10.);
#193=VECTOR('',#751,10.);
#194=VECTOR('',#756,10.);
#195=VECTOR('',#757,10.);
#196=VECTOR('',#760,10.);
#197=VECTOR('',#761,10.);
#198=VECTOR('',#762,10.);
#199=VECTOR('',#763,10.);
#200=VECTOR('',#768,10.);
#201=VECTOR('',#775,10.);
#202=VECTOR('',#780,10.);
#203=VECTOR('',#781,10.);
#204=VECTOR('',#782,10.);
#205=VECTOR('',#787,10.);
#206=VECTOR('',#792,10.);
#207=VECTOR('',#793,10.);
#208=VECTOR('',#794,10.);
#209=VECTOR('',#799,10.);
#210=VECTOR('',#800,10.);
#211=VECTOR('',#801,10.);
#212=VECTOR('',#802,10.);
#213=VECTOR('',#803,10.);
#214=VECTOR('',#806,10.);
#215=VECTOR('',#807,10.);
#216=VECTOR('',#808,10.);
#217=VECTOR('',#837,10.);
#218=VECTOR('',#842,10.);
#219=VECTOR('',#845,10.);
#220=VECTOR('',#848,10.);
#221=VECTOR('',#849,10.);
#222=VECTOR('',#854,10.);
#223=VECTOR('',#857,10.);
#224=VECTOR('',#860,10.);
#225=VECTOR('',#861,10.);
#226=VECTOR('',#864,10.);
#227=VECTOR('',#867,10.);
#228=VECTOR('',#872,10.);
#229=VECTOR('',#875,10.);
#230=VECTOR('',#878,10.);
#231=VECTOR('',#881,10.);
#232=VECTOR('',#882,10.);
#233=VECTOR('',#885,10.);
#234=VECTOR('',#888,10.);
#235=CIRCLE('',#637,1.625);
#236=CIRCLE('',#638,1.625);
#237=CIRCLE('',#642,6.5);
#238=CIRCLE('',#643,6.);
#239=CIRCLE('',#646,6.5);
#240=CIRCLE('',#647,6.);
#241=CIRCLE('',#650,3.5);
#242=CIRCLE('',#651,701.5);
#243=CIRCLE('',#652,3.49999999999998);
#244=CIRCLE('',#655,2.99999999999998);
#245=CIRCLE('',#656,2.49999999999998);
#246=CIRCLE('',#658,702.);
#247=CIRCLE('',#659,702.5);
#248=CIRCLE('',#662,3.);
#249=CIRCLE('',#663,2.50000000000001);
#250=CIRCLE('',#669,0.499999999999994);
#251=CIRCLE('',#671,0.499999999999996);
#252=CIRCLE('',#673,0.500000000000113);
#253=CIRCLE('',#675,0.500000000000045);
#254=CIRCLE('',#677,0.500000000000001);
#255=CIRCLE('',#683,3.);
#256=CIRCLE('',#684,3.);
#257=CIRCLE('',#687,3.);
#258=CIRCLE('',#688,3.);
#259=CIRCLE('',#694,6.5);
#260=CIRCLE('',#696,6.5);
#261=VERTEX_POINT('',#898);
#262=VERTEX_POINT('',#900);
#263=VERTEX_POINT('',#905);
#264=VERTEX_POINT('',#906);
#265=VERTEX_POINT('',#908);
#266=VERTEX_POINT('',#910);
#267=VERTEX_POINT('',#914);
#268=VERTEX_POINT('',#916);
#269=VERTEX_POINT('',#920);
#270=VERTEX_POINT('',#921);
#271=VERTEX_POINT('',#926);
#272=VERTEX_POINT('',#928);
#273=VERTEX_POINT('',#932);
#274=VERTEX_POINT('',#933);
#275=VERTEX_POINT('',#938);
#276=VERTEX_POINT('',#940);
#277=VERTEX_POINT('',#942);
#278=VERTEX_POINT('',#944);
#279=VERTEX_POINT('',#946);
#280=VERTEX_POINT('',#948);
#281=VERTEX_POINT('',#950);
#282=VERTEX_POINT('',#954);
#283=VERTEX_POINT('',#955);
#284=VERTEX_POINT('',#957);
#285=VERTEX_POINT('',#959);
#286=VERTEX_POINT('',#963);
#287=VERTEX_POINT('',#965);
#288=VERTEX_POINT('',#969);
#289=VERTEX_POINT('',#971);
#290=VERTEX_POINT('',#975);
#291=VERTEX_POINT('',#976);
#292=VERTEX_POINT('',#981);
#293=VERTEX_POINT('',#983);
#294=VERTEX_POINT('',#987);
#295=VERTEX_POINT('',#988);
#296=VERTEX_POINT('',#994);
#297=VERTEX_POINT('',#996);
#298=VERTEX_POINT('',#998);
#299=VERTEX_POINT('',#1000);
#300=VERTEX_POINT('',#1004);
#301=VERTEX_POINT('',#1006);
#302=VERTEX_POINT('',#1021);
#303=VERTEX_POINT('',#1023);
#304=VERTEX_POINT('',#1027);
#305=VERTEX_POINT('',#1028);
#306=VERTEX_POINT('',#1030);
#307=VERTEX_POINT('',#1032);
#308=VERTEX_POINT('',#1039);
#309=VERTEX_POINT('',#1040);
#310=VERTEX_POINT('',#1042);
#311=VERTEX_POINT('',#1044);
#312=VERTEX_POINT('',#1056);
#313=VERTEX_POINT('',#1058);
#314=VERTEX_POINT('',#1062);
#315=VERTEX_POINT('',#1064);
#316=EDGE_CURVE('',#261,#261,#235,.T.);
#317=EDGE_CURVE('',#261,#262,#121,.T.);
#318=EDGE_CURVE('',#262,#262,#236,.T.);
#319=EDGE_CURVE('',#263,#264,#122,.T.);
#320=EDGE_CURVE('',#264,#265,#123,.T.);
#321=EDGE_CURVE('',#265,#266,#124,.T.);
#322=EDGE_CURVE('',#266,#263,#125,.T.);
#323=EDGE_CURVE('',#265,#267,#237,.T.);
#324=EDGE_CURVE('',#267,#268,#126,.T.);
#325=EDGE_CURVE('',#268,#266,#238,.T.);
#326=EDGE_CURVE('',#269,#270,#127,.T.);
#327=EDGE_CURVE('',#270,#268,#128,.T.);
#328=EDGE_CURVE('',#267,#269,#129,.T.);
#329=EDGE_CURVE('',#269,#271,#239,.T.);
#330=EDGE_CURVE('',#271,#272,#130,.T.);
#331=EDGE_CURVE('',#272,#270,#240,.T.);
#332=EDGE_CURVE('',#273,#274,#131,.T.);
#333=EDGE_CURVE('',#274,#272,#132,.T.);
#334=EDGE_CURVE('',#271,#273,#133,.T.);
#335=EDGE_CURVE('',#274,#275,#134,.T.);
#336=EDGE_CURVE('',#276,#275,#135,.T.);
#337=EDGE_CURVE('',#277,#276,#241,.T.);
#338=EDGE_CURVE('',#278,#277,#136,.T.);
#339=EDGE_CURVE('',#279,#278,#242,.T.);
#340=EDGE_CURVE('',#280,#279,#243,.T.);
#341=EDGE_CURVE('',#281,#280,#137,.T.);
#342=EDGE_CURVE('',#281,#263,#138,.T.);
#343=EDGE_CURVE('',#282,#283,#139,.T.);
#344=EDGE_CURVE('',#284,#283,#140,.T.);
#345=EDGE_CURVE('',#284,#285,#141,.T.);
#346=EDGE_CURVE('',#285,#282,#142,.T.);
#347=EDGE_CURVE('',#286,#284,#244,.T.);
#348=EDGE_CURVE('',#286,#287,#143,.T.);
#349=EDGE_CURVE('',#287,#285,#245,.T.);
#350=EDGE_CURVE('',#288,#286,#246,.T.);
#351=EDGE_CURVE('',#288,#289,#144,.T.);
#352=EDGE_CURVE('',#289,#287,#247,.T.);
#353=EDGE_CURVE('',#290,#291,#145,.T.);
#354=EDGE_CURVE('',#291,#289,#146,.T.);
#355=EDGE_CURVE('',#290,#288,#147,.T.);
#356=EDGE_CURVE('',#292,#290,#248,.T.);
#357=EDGE_CURVE('',#292,#293,#148,.T.);
#358=EDGE_CURVE('',#293,#291,#249,.T.);
#359=EDGE_CURVE('',#294,#295,#149,.T.);
#360=EDGE_CURVE('',#295,#293,#150,.T.);
#361=EDGE_CURVE('',#294,#292,#151,.T.);
#362=EDGE_CURVE('',#283,#281,#23,.T.);
#363=EDGE_CURVE('',#296,#282,#152,.T.);
#364=EDGE_CURVE('',#297,#296,#153,.T.);
#365=EDGE_CURVE('',#298,#297,#154,.T.);
#366=EDGE_CURVE('',#298,#299,#155,.T.);
#367=EDGE_CURVE('',#295,#299,#156,.T.);
#368=EDGE_CURVE('',#275,#294,#24,.T.);
#369=EDGE_CURVE('',#273,#300,#157,.T.);
#370=EDGE_CURVE('',#301,#300,#158,.T.);
#371=EDGE_CURVE('',#264,#301,#159,.T.);
#372=EDGE_CURVE('',#292,#276,#250,.T.);
#373=EDGE_CURVE('',#290,#277,#251,.T.);
#374=EDGE_CURVE('',#288,#278,#252,.T.);
#375=EDGE_CURVE('',#286,#279,#253,.T.);
#376=EDGE_CURVE('',#284,#280,#254,.T.);
#377=EDGE_CURVE('',#302,#298,#25,.F.);
#378=EDGE_CURVE('',#297,#303,#26,.F.);
#379=EDGE_CURVE('',#303,#302,#160,.T.);
#380=EDGE_CURVE('',#304,#305,#255,.T.);
#381=EDGE_CURVE('',#304,#306,#161,.T.);
#382=EDGE_CURVE('',#306,#307,#256,.T.);
#383=EDGE_CURVE('',#307,#305,#162,.T.);
#384=EDGE_CURVE('',#299,#307,#163,.T.);
#385=EDGE_CURVE('',#305,#302,#164,.T.);
#386=EDGE_CURVE('',#308,#309,#257,.T.);
#387=EDGE_CURVE('',#308,#310,#165,.T.);
#388=EDGE_CURVE('',#310,#311,#258,.T.);
#389=EDGE_CURVE('',#311,#309,#166,.T.);
#390=EDGE_CURVE('',#309,#304,#167,.T.);
#391=EDGE_CURVE('',#306,#311,#168,.T.);
#392=EDGE_CURVE('',#310,#296,#169,.T.);
#393=EDGE_CURVE('',#303,#308,#170,.T.);
#394=EDGE_CURVE('',#269,#312,#171,.T.);
#395=EDGE_CURVE('',#312,#313,#259,.T.);
#396=EDGE_CURVE('',#313,#271,#172,.T.);
#397=EDGE_CURVE('',#312,#314,#173,.T.);
#398=EDGE_CURVE('',#315,#314,#260,.T.);
#399=EDGE_CURVE('',#315,#301,#174,.T.);
#400=EDGE_CURVE('',#300,#313,#175,.T.);
#401=EDGE_CURVE('',#314,#267,#176,.T.);
#402=EDGE_CURVE('',#265,#315,#177,.T.);
#403=ORIENTED_EDGE('',*,*,#316,.F.);
#404=ORIENTED_EDGE('',*,*,#317,.T.);
#405=ORIENTED_EDGE('',*,*,#318,.F.);
#406=ORIENTED_EDGE('',*,*,#317,.F.);
#407=ORIENTED_EDGE('',*,*,#316,.T.);
#408=ORIENTED_EDGE('',*,*,#319,.T.);
#409=ORIENTED_EDGE('',*,*,#320,.T.);
#410=ORIENTED_EDGE('',*,*,#321,.T.);
#411=ORIENTED_EDGE('',*,*,#322,.T.);
#412=ORIENTED_EDGE('',*,*,#321,.F.);
#413=ORIENTED_EDGE('',*,*,#323,.T.);
#414=ORIENTED_EDGE('',*,*,#324,.T.);
#415=ORIENTED_EDGE('',*,*,#325,.T.);
#416=ORIENTED_EDGE('',*,*,#326,.T.);
#417=ORIENTED_EDGE('',*,*,#327,.T.);
#418=ORIENTED_EDGE('',*,*,#324,.F.);
#419=ORIENTED_EDGE('',*,*,#328,.T.);
#420=ORIENTED_EDGE('',*,*,#326,.F.);
#421=ORIENTED_EDGE('',*,*,#329,.T.);
#422=ORIENTED_EDGE('',*,*,#330,.T.);
#423=ORIENTED_EDGE('',*,*,#331,.T.);
#424=ORIENTED_EDGE('',*,*,#332,.T.);
#425=ORIENTED_EDGE('',*,*,#333,.T.);
#426=ORIENTED_EDGE('',*,*,#330,.F.);
#427=ORIENTED_EDGE('',*,*,#334,.T.);
#428=ORIENTED_EDGE('',*,*,#322,.F.);
#429=ORIENTED_EDGE('',*,*,#325,.F.);
#430=ORIENTED_EDGE('',*,*,#327,.F.);
#431=ORIENTED_EDGE('',*,*,#331,.F.);
#432=ORIENTED_EDGE('',*,*,#333,.F.);
#433=ORIENTED_EDGE('',*,*,#335,.T.);
#434=ORIENTED_EDGE('',*,*,#336,.F.);
#435=ORIENTED_EDGE('',*,*,#337,.F.);
#436=ORIENTED_EDGE('',*,*,#338,.F.);
#437=ORIENTED_EDGE('',*,*,#339,.F.);
#438=ORIENTED_EDGE('',*,*,#340,.F.);
#439=ORIENTED_EDGE('',*,*,#341,.F.);
#440=ORIENTED_EDGE('',*,*,#342,.T.);
#441=ORIENTED_EDGE('',*,*,#343,.T.);
#442=ORIENTED_EDGE('',*,*,#344,.F.);
#443=ORIENTED_EDGE('',*,*,#345,.T.);
#444=ORIENTED_EDGE('',*,*,#346,.T.);
#445=ORIENTED_EDGE('',*,*,#345,.F.);
#446=ORIENTED_EDGE('',*,*,#347,.F.);
#447=ORIENTED_EDGE('',*,*,#348,.T.);
#448=ORIENTED_EDGE('',*,*,#349,.T.);
#449=ORIENTED_EDGE('',*,*,#348,.F.);
#450=ORIENTED_EDGE('',*,*,#350,.F.);
#451=ORIENTED_EDGE('',*,*,#351,.T.);
#452=ORIENTED_EDGE('',*,*,#352,.T.);
#453=ORIENTED_EDGE('',*,*,#353,.T.);
#454=ORIENTED_EDGE('',*,*,#354,.T.);
#455=ORIENTED_EDGE('',*,*,#351,.F.);
#456=ORIENTED_EDGE('',*,*,#355,.F.);
#457=ORIENTED_EDGE('',*,*,#353,.F.);
#458=ORIENTED_EDGE('',*,*,#356,.F.);
#459=ORIENTED_EDGE('',*,*,#357,.T.);
#460=ORIENTED_EDGE('',*,*,#358,.T.);
#461=ORIENTED_EDGE('',*,*,#359,.T.);
#462=ORIENTED_EDGE('',*,*,#360,.T.);
#463=ORIENTED_EDGE('',*,*,#357,.F.);
#464=ORIENTED_EDGE('',*,*,#361,.F.);
#465=ORIENTED_EDGE('',*,*,#319,.F.);
#466=ORIENTED_EDGE('',*,*,#342,.F.);
#467=ORIENTED_EDGE('',*,*,#362,.F.);
#468=ORIENTED_EDGE('',*,*,#343,.F.);
#469=ORIENTED_EDGE('',*,*,#363,.F.);
#470=ORIENTED_EDGE('',*,*,#364,.F.);
#471=ORIENTED_EDGE('',*,*,#365,.F.);
#472=ORIENTED_EDGE('',*,*,#366,.T.);
#473=ORIENTED_EDGE('',*,*,#367,.F.);
#474=ORIENTED_EDGE('',*,*,#359,.F.);
#475=ORIENTED_EDGE('',*,*,#368,.F.);
#476=ORIENTED_EDGE('',*,*,#335,.F.);
#477=ORIENTED_EDGE('',*,*,#332,.F.);
#478=ORIENTED_EDGE('',*,*,#369,.T.);
#479=ORIENTED_EDGE('',*,*,#370,.F.);
#480=ORIENTED_EDGE('',*,*,#371,.F.);
#481=ORIENTED_EDGE('',*,*,#372,.T.);
#482=ORIENTED_EDGE('',*,*,#336,.T.);
#483=ORIENTED_EDGE('',*,*,#368,.T.);
#484=ORIENTED_EDGE('',*,*,#361,.T.);
#485=ORIENTED_EDGE('',*,*,#373,.T.);
#486=ORIENTED_EDGE('',*,*,#337,.T.);
#487=ORIENTED_EDGE('',*,*,#372,.F.);
#488=ORIENTED_EDGE('',*,*,#356,.T.);
#489=ORIENTED_EDGE('',*,*,#374,.T.);
#490=ORIENTED_EDGE('',*,*,#338,.T.);
#491=ORIENTED_EDGE('',*,*,#373,.F.);
#492=ORIENTED_EDGE('',*,*,#355,.T.);
#493=ORIENTED_EDGE('',*,*,#375,.T.);
#494=ORIENTED_EDGE('',*,*,#339,.T.);
#495=ORIENTED_EDGE('',*,*,#374,.F.);
#496=ORIENTED_EDGE('',*,*,#350,.T.);
#497=ORIENTED_EDGE('',*,*,#376,.T.);
#498=ORIENTED_EDGE('',*,*,#340,.T.);
#499=ORIENTED_EDGE('',*,*,#375,.F.);
#500=ORIENTED_EDGE('',*,*,#347,.T.);
#501=ORIENTED_EDGE('',*,*,#362,.T.);
#502=ORIENTED_EDGE('',*,*,#341,.T.);
#503=ORIENTED_EDGE('',*,*,#376,.F.);
#504=ORIENTED_EDGE('',*,*,#344,.T.);
#505=ORIENTED_EDGE('',*,*,#377,.T.);
#506=ORIENTED_EDGE('',*,*,#365,.T.);
#507=ORIENTED_EDGE('',*,*,#378,.T.);
#508=ORIENTED_EDGE('',*,*,#379,.T.);
#509=ORIENTED_EDGE('',*,*,#380,.F.);
#510=ORIENTED_EDGE('',*,*,#381,.T.);
#511=ORIENTED_EDGE('',*,*,#382,.T.);
#512=ORIENTED_EDGE('',*,*,#383,.T.);
#513=ORIENTED_EDGE('',*,*,#383,.F.);
#514=ORIENTED_EDGE('',*,*,#384,.F.);
#515=ORIENTED_EDGE('',*,*,#366,.F.);
#516=ORIENTED_EDGE('',*,*,#377,.F.);
#517=ORIENTED_EDGE('',*,*,#385,.F.);
#518=ORIENTED_EDGE('',*,*,#386,.F.);
#519=ORIENTED_EDGE('',*,*,#387,.T.);
#520=ORIENTED_EDGE('',*,*,#388,.T.);
#521=ORIENTED_EDGE('',*,*,#389,.T.);
#522=ORIENTED_EDGE('',*,*,#381,.F.);
#523=ORIENTED_EDGE('',*,*,#390,.F.);
#524=ORIENTED_EDGE('',*,*,#389,.F.);
#525=ORIENTED_EDGE('',*,*,#391,.F.);
#526=ORIENTED_EDGE('',*,*,#360,.F.);
#527=ORIENTED_EDGE('',*,*,#367,.T.);
#528=ORIENTED_EDGE('',*,*,#384,.T.);
#529=ORIENTED_EDGE('',*,*,#382,.F.);
#530=ORIENTED_EDGE('',*,*,#391,.T.);
#531=ORIENTED_EDGE('',*,*,#388,.F.);
#532=ORIENTED_EDGE('',*,*,#392,.T.);
#533=ORIENTED_EDGE('',*,*,#363,.T.);
#534=ORIENTED_EDGE('',*,*,#346,.F.);
#535=ORIENTED_EDGE('',*,*,#349,.F.);
#536=ORIENTED_EDGE('',*,*,#352,.F.);
#537=ORIENTED_EDGE('',*,*,#354,.F.);
#538=ORIENTED_EDGE('',*,*,#358,.F.);
#539=ORIENTED_EDGE('',*,*,#387,.F.);
#540=ORIENTED_EDGE('',*,*,#393,.F.);
#541=ORIENTED_EDGE('',*,*,#378,.F.);
#542=ORIENTED_EDGE('',*,*,#364,.T.);
#543=ORIENTED_EDGE('',*,*,#392,.F.);
#544=ORIENTED_EDGE('',*,*,#379,.F.);
#545=ORIENTED_EDGE('',*,*,#393,.T.);
#546=ORIENTED_EDGE('',*,*,#386,.T.);
#547=ORIENTED_EDGE('',*,*,#390,.T.);
#548=ORIENTED_EDGE('',*,*,#380,.T.);
#549=ORIENTED_EDGE('',*,*,#385,.T.);
#550=ORIENTED_EDGE('',*,*,#329,.F.);
#551=ORIENTED_EDGE('',*,*,#394,.T.);
#552=ORIENTED_EDGE('',*,*,#395,.T.);
#553=ORIENTED_EDGE('',*,*,#396,.T.);
#554=ORIENTED_EDGE('',*,*,#395,.F.);
#555=ORIENTED_EDGE('',*,*,#397,.T.);
#556=ORIENTED_EDGE('',*,*,#398,.F.);
#557=ORIENTED_EDGE('',*,*,#399,.T.);
#558=ORIENTED_EDGE('',*,*,#370,.T.);
#559=ORIENTED_EDGE('',*,*,#400,.T.);
#560=ORIENTED_EDGE('',*,*,#328,.F.);
#561=ORIENTED_EDGE('',*,*,#401,.F.);
#562=ORIENTED_EDGE('',*,*,#397,.F.);
#563=ORIENTED_EDGE('',*,*,#394,.F.);
#564=ORIENTED_EDGE('',*,*,#323,.F.);
#565=ORIENTED_EDGE('',*,*,#402,.T.);
#566=ORIENTED_EDGE('',*,*,#398,.T.);
#567=ORIENTED_EDGE('',*,*,#401,.T.);
#568=ORIENTED_EDGE('',*,*,#334,.F.);
#569=ORIENTED_EDGE('',*,*,#396,.F.);
#570=ORIENTED_EDGE('',*,*,#400,.F.);
#571=ORIENTED_EDGE('',*,*,#369,.F.);
#572=ORIENTED_EDGE('',*,*,#320,.F.);
#573=ORIENTED_EDGE('',*,*,#371,.T.);
#574=ORIENTED_EDGE('',*,*,#399,.F.);
#575=ORIENTED_EDGE('',*,*,#402,.F.);
#576=ORIENTED_EDGE('',*,*,#318,.T.);
#577=CYLINDRICAL_SURFACE('',#636,1.625);
#578=CYLINDRICAL_SURFACE('',#668,0.5);
#579=CYLINDRICAL_SURFACE('',#672,0.5);
#580=CYLINDRICAL_SURFACE('',#678,0.5);
#581=CYLINDRICAL_SURFACE('',#679,2.);
#582=CYLINDRICAL_SURFACE('',#682,3.);
#583=CYLINDRICAL_SURFACE('',#686,3.);
#584=CYLINDRICAL_SURFACE('',#693,6.5);
#585=CYLINDRICAL_SURFACE('',#698,6.5);
#586=ADVANCED_FACE('',(#50),#577,.T.);
#587=ADVANCED_FACE('',(#51),#32,.T.);
#588=ADVANCED_FACE('',(#52),#33,.T.);
#589=ADVANCED_FACE('',(#53),#27,.T.);
#590=ADVANCED_FACE('',(#54),#34,.T.);
#591=ADVANCED_FACE('',(#55),#28,.T.);
#592=ADVANCED_FACE('',(#56),#35,.T.);
#593=ADVANCED_FACE('',(#57),#36,.T.);
#594=ADVANCED_FACE('',(#58),#37,.T.);
#595=ADVANCED_FACE('',(#59),#29,.T.);
#596=ADVANCED_FACE('',(#60),#30,.F.);
#597=ADVANCED_FACE('',(#61),#38,.T.);
#598=ADVANCED_FACE('',(#62),#31,.T.);
#599=ADVANCED_FACE('',(#63),#39,.T.);
#600=ADVANCED_FACE('',(#64),#40,.F.);
#601=ADVANCED_FACE('',(#65),#578,.F.);
#602=ADVANCED_FACE('',(#66),#20,.F.);
#603=ADVANCED_FACE('',(#67),#579,.F.);
#604=ADVANCED_FACE('',(#68),#21,.F.);
#605=ADVANCED_FACE('',(#69),#22,.F.);
#606=ADVANCED_FACE('',(#70),#580,.F.);
#607=ADVANCED_FACE('',(#71),#581,.T.);
#608=ADVANCED_FACE('',(#72),#582,.F.);
#609=ADVANCED_FACE('',(#73),#41,.T.);
#610=ADVANCED_FACE('',(#74),#583,.F.);
#611=ADVANCED_FACE('',(#75),#42,.T.);
#612=ADVANCED_FACE('',(#76),#43,.T.);
#613=ADVANCED_FACE('',(#77),#44,.T.);
#614=ADVANCED_FACE('',(#78),#45,.T.);
#615=ADVANCED_FACE('',(#79),#584,.T.);
#616=ADVANCED_FACE('',(#80),#46,.F.);
#617=ADVANCED_FACE('',(#81),#47,.F.);
#618=ADVANCED_FACE('',(#82),#585,.T.);
#619=ADVANCED_FACE('',(#83),#48,.F.);
#620=ADVANCED_FACE('',(#84,#19),#49,.F.);
#621=CLOSED_SHELL('',(#586,#587,#588,#589,#590,#591,#592,#593,#594,#595,
#596,#597,#598,#599,#600,#601,#602,#603,#604,#605,#606,#607,#608,#609,#610,
#611,#612,#613,#614,#615,#616,#617,#618,#619,#620));
#622=DERIVED_UNIT_ELEMENT(#624,1.);
#623=DERIVED_UNIT_ELEMENT(#1082,3.);
#624=(
MASS_UNIT()
NAMED_UNIT(*)
SI_UNIT(.KILO.,.GRAM.)
);
#625=DERIVED_UNIT((#622,#623));
#626=MEASURE_REPRESENTATION_ITEM('density measure',
POSITIVE_RATIO_MEASURE(1060.),#625);
#627=PROPERTY_DEFINITION_REPRESENTATION(#632,#629);
#628=PROPERTY_DEFINITION_REPRESENTATION(#633,#630);
#629=REPRESENTATION('material name',(#631),#1079);
#630=REPRESENTATION('density',(#626),#1079);
#631=DESCRIPTIVE_REPRESENTATION_ITEM('ABS Plastic','ABS Plastic');
#632=PROPERTY_DEFINITION('material property','material name',#1094);
#633=PROPERTY_DEFINITION('material property','density of part',#1094);
#634=AXIS2_PLACEMENT_3D('placement',#895,#702,#703);
#635=AXIS2_PLACEMENT_3D('placement',#896,#704,#705);
#636=AXIS2_PLACEMENT_3D('',#897,#706,#707);
#637=AXIS2_PLACEMENT_3D('',#899,#708,#709);
#638=AXIS2_PLACEMENT_3D('',#902,#711,#712);
#639=AXIS2_PLACEMENT_3D('',#903,#713,#714);
#640=AXIS2_PLACEMENT_3D('',#904,#715,#716);
#641=AXIS2_PLACEMENT_3D('',#913,#721,#722);
#642=AXIS2_PLACEMENT_3D('',#915,#723,#724);
#643=AXIS2_PLACEMENT_3D('',#918,#726,#727);
#644=AXIS2_PLACEMENT_3D('',#919,#728,#729);
#645=AXIS2_PLACEMENT_3D('',#925,#733,#734);
#646=AXIS2_PLACEMENT_3D('',#927,#735,#736);
#647=AXIS2_PLACEMENT_3D('',#930,#738,#739);
#648=AXIS2_PLACEMENT_3D('',#931,#740,#741);
#649=AXIS2_PLACEMENT_3D('',#937,#745,#746);
#650=AXIS2_PLACEMENT_3D('',#943,#749,#750);
#651=AXIS2_PLACEMENT_3D('',#947,#752,#753);
#652=AXIS2_PLACEMENT_3D('',#949,#754,#755);
#653=AXIS2_PLACEMENT_3D('',#953,#758,#759);
#654=AXIS2_PLACEMENT_3D('',#962,#764,#765);
#655=AXIS2_PLACEMENT_3D('',#964,#766,#767);
#656=AXIS2_PLACEMENT_3D('',#967,#769,#770);
#657=AXIS2_PLACEMENT_3D('',#968,#771,#772);
#658=AXIS2_PLACEMENT_3D('',#970,#773,#774);
#659=AXIS2_PLACEMENT_3D('',#973,#776,#777);
#660=AXIS2_PLACEMENT_3D('',#974,#778,#779);
#661=AXIS2_PLACEMENT_3D('',#980,#783,#784);
#662=AXIS2_PLACEMENT_3D('',#982,#785,#786);
#663=AXIS2_PLACEMENT_3D('',#985,#788,#789);
#664=AXIS2_PLACEMENT_3D('',#986,#790,#791);
#665=AXIS2_PLACEMENT_3D('',#992,#795,#796);
#666=AXIS2_PLACEMENT_3D('',#993,#797,#798);
#667=AXIS2_PLACEMENT_3D('',#1003,#804,#805);
#668=AXIS2_PLACEMENT_3D('',#1009,#809,#810);
#669=AXIS2_PLACEMENT_3D('',#1010,#811,#812);
#670=AXIS2_PLACEMENT_3D('',#1011,#813,#814);
#671=AXIS2_PLACEMENT_3D('',#1012,#815,#816);
#672=AXIS2_PLACEMENT_3D('',#1013,#817,#818);
#673=AXIS2_PLACEMENT_3D('',#1014,#819,#820);
#674=AXIS2_PLACEMENT_3D('',#1015,#821,#822);
#675=AXIS2_PLACEMENT_3D('',#1016,#823,#824);
#676=AXIS2_PLACEMENT_3D('',#1017,#825,#826);
#677=AXIS2_PLACEMENT_3D('',#1018,#827,#828);
#678=AXIS2_PLACEMENT_3D('',#1019,#829,#830);
#679=AXIS2_PLACEMENT_3D('',#1020,#831,#832);
#680=AXIS2_PLACEMENT_3D('',#1022,#833,#834);
#681=AXIS2_PLACEMENT_3D('',#1024,#835,#836);
#682=AXIS2_PLACEMENT_3D('',#1026,#838,#839);
#683=AXIS2_PLACEMENT_3D('',#1029,#840,#841);
#684=AXIS2_PLACEMENT_3D('',#1033,#843,#844);
#685=AXIS2_PLACEMENT_3D('',#1035,#846,#847);
#686=AXIS2_PLACEMENT_3D('',#1038,#850,#851);
#687=AXIS2_PLACEMENT_3D('',#1041,#852,#853);
#688=AXIS2_PLACEMENT_3D('',#1045,#855,#856);
#689=AXIS2_PLACEMENT_3D('',#1047,#858,#859);
#690=AXIS2_PLACEMENT_3D('',#1050,#862,#863);
#691=AXIS2_PLACEMENT_3D('',#1052,#865,#866);
#692=AXIS2_PLACEMENT_3D('',#1054,#868,#869);
#693=AXIS2_PLACEMENT_3D('',#1055,#870,#871);
#694=AXIS2_PLACEMENT_3D('',#1059,#873,#874);
#695=AXIS2_PLACEMENT_3D('',#1061,#876,#877);
#696=AXIS2_PLACEMENT_3D('',#1065,#879,#880);
#697=AXIS2_PLACEMENT_3D('',#1068,#883,#884);
#698=AXIS2_PLACEMENT_3D('',#1070,#886,#887);
#699=AXIS2_PLACEMENT_3D('',#1072,#889,#890);
#700=AXIS2_PLACEMENT_3D('',#1073,#891,#892);
#701=AXIS2_PLACEMENT_3D('',#1074,#893,#894);
#702=DIRECTION('axis',(0.,0.,1.));
#703=DIRECTION('refdir',(1.,0.,0.));
#704=DIRECTION('axis',(0.,0.,1.));
#705=DIRECTION('refdir',(1.,0.,0.));
#706=DIRECTION('center_axis',(-1.,0.,2.22044604925031E-16));
#707=DIRECTION('ref_axis',(2.22044604925031E-16,0.,1.));
#708=DIRECTION('center_axis',(-1.,0.,2.22044604925031E-16));
#709=DIRECTION('ref_axis',(2.22044604925031E-16,0.,1.));
#710=DIRECTION('',(1.,0.,-2.22044604925031E-16));
#711=DIRECTION('center_axis',(1.,0.,0.));
#712=DIRECTION('ref_axis',(2.22044604925031E-16,0.,1.));
#713=DIRECTION('center_axis',(-1.,0.,2.22044604925031E-16));
#714=DIRECTION('ref_axis',(2.22044604925031E-16,0.,1.));
#715=DIRECTION('center_axis',(-0.707106781186549,0.,0.707106781186546));
#716=DIRECTION('ref_axis',(0.707106781186546,0.,0.707106781186549));
#717=DIRECTION('',(-0.707106781186546,0.,-0.707106781186549));
#718=DIRECTION('',(0.,-1.,0.));
#719=DIRECTION('',(0.707106781186546,0.,0.707106781186549));
#720=DIRECTION('',(0.,1.,0.));
#721=DIRECTION('center_axis',(0.,0.,-1.));
#722=DIRECTION('ref_axis',(-0.707106781186547,-0.707106781186547,0.));
#723=DIRECTION('center_axis',(0.,0.,1.));
#724=DIRECTION('ref_axis',(-0.707106781186547,-0.707106781186547,0.));
#725=DIRECTION('',(0.,0.707106781186545,0.707106781186549));
#726=DIRECTION('center_axis',(0.,0.,-1.));
#727=DIRECTION('ref_axis',(-0.707106781186548,-0.707106781186548,0.));
#728=DIRECTION('center_axis',(0.,-0.707106781186548,0.707106781186548));
#729=DIRECTION('ref_axis',(1.,0.,0.));
#730=DIRECTION('',(0.,0.707106781186547,0.707106781186547));
#731=DIRECTION('',(-1.,0.,0.));
#732=DIRECTION('',(1.,0.,0.));
#733=DIRECTION('center_axis',(0.,0.,-1.));
#734=DIRECTION('ref_axis',(0.707106781186549,-0.707106781186546,0.));
#735=DIRECTION('center_axis',(0.,0.,1.));
#736=DIRECTION('ref_axis',(0.707106781186549,-0.707106781186546,0.));
#737=DIRECTION('',(-0.707106781186552,0.,0.707106781186543));
#738=DIRECTION('center_axis',(0.,0.,-1.));
#739=DIRECTION('ref_axis',(0.707106781186549,-0.707106781186546,0.));
#740=DIRECTION('center_axis',(0.707106781186543,0.,0.707106781186552));
#741=DIRECTION('ref_axis',(0.707106781186552,0.,-0.707106781186543));
#742=DIRECTION('',(-0.707106781186552,0.,0.707106781186543));
#743=DIRECTION('',(0.,-1.,0.));
#744=DIRECTION('',(0.,1.,0.));
#745=DIRECTION('center_axis',(0.,0.,1.));
#746=DIRECTION('ref_axis',(0.,1.,0.));
#747=DIRECTION('',(-1.,0.,0.));
#748=DIRECTION('',(0.621330754147796,0.783548399239084,0.));
#749=DIRECTION('center_axis',(0.,0.,1.));
#750=DIRECTION('ref_axis',(0.496103079700756,-0.868263631802822,0.));
#751=DIRECTION('',(0.99051328079454,0.137417031585017,0.));
#752=DIRECTION('center_axis',(0.,0.,-1.));
#753=DIRECTION('ref_axis',(-0.185946119339736,0.982559942549304,0.));
#754=DIRECTION('center_axis',(0.,0.,1.));
#755=DIRECTION('ref_axis',(-0.389526499672854,-0.921015258316937,0.));
#756=DIRECTION('',(0.509277734088507,-0.860602224934188,0.));
#757=DIRECTION('',(-1.,0.,0.));
#758=DIRECTION('center_axis',(-0.608537669155194,-0.360113739281302,0.707106781186549));
#759=DIRECTION('ref_axis',(0.757959491323781,0.,0.652301624643228));
#760=DIRECTION('',(-0.757959491323781,0.,-0.652301624643228));
#761=DIRECTION('',(-0.509277734088507,0.860602224934188,0.));
#762=DIRECTION('',(0.6085376691552,0.360113739281304,0.707106781186543));
#763=DIRECTION('',(-0.509277734088507,0.860602224934188,0.));
#764=DIRECTION('center_axis',(0.,0.,-1.));
#765=DIRECTION('ref_axis',(-0.860602224934188,-0.509277734088507,0.));
#766=DIRECTION('center_axis',(0.,0.,-1.));
#767=DIRECTION('ref_axis',(-0.389526499672854,-0.921015258316937,0.));
#768=DIRECTION('',(-0.165481038100517,0.687470745580621,0.707106781186548));
#769=DIRECTION('center_axis',(0.,0.,-1.));
#770=DIRECTION('ref_axis',(-0.860602224934188,-0.509277734088508,0.));
#771=DIRECTION('center_axis',(0.,0.,1.));
#772=DIRECTION('ref_axis',(-0.186038597324368,0.982542436898062,0.));
#773=DIRECTION('center_axis',(0.,0.,1.));
#774=DIRECTION('ref_axis',(-0.185946119339736,0.982559942549305,0.));
#775=DIRECTION('',(-0.0971685148842661,0.700398657705158,0.707106781186547));
#776=DIRECTION('center_axis',(0.,0.,1.));
#777=DIRECTION('ref_axis',(-0.186038597324368,0.982542436898062,0.));
#778=DIRECTION('center_axis',(0.0971685148842914,-0.700398657705155,0.707106781186547));
#779=DIRECTION('ref_axis',(0.990689928794553,0.,-0.136137669236119));
#780=DIRECTION('',(-0.097168514884291,0.700398657705156,0.707106781186545));
#781=DIRECTION('',(-0.99051328079454,-0.137417031585017,0.));
#782=DIRECTION('',(-0.99051328079454,-0.137417031585017,0.));
#783=DIRECTION('center_axis',(0.,0.,-1.));
#784=DIRECTION('ref_axis',(0.496103079700755,-0.868263631802822,0.));
#785=DIRECTION('center_axis',(0.,0.,-1.));
#786=DIRECTION('ref_axis',(0.496103079700756,-0.868263631802822,0.));
#787=DIRECTION('',(-0.554052386489817,0.439347189617657,0.707106781186551));
#788=DIRECTION('center_axis',(0.,0.,-1.));
#789=DIRECTION('ref_axis',(0.496103079700755,-0.868263631802822,0.));
#790=DIRECTION('center_axis',(0.554052386489825,-0.439347189617662,0.707106781186542));
#791=DIRECTION('ref_axis',(0.787145864952343,0.,-0.616766882451083));
#792=DIRECTION('',(-0.787145864952343,0.,0.616766882451083));
#793=DIRECTION('',(-0.621330754147796,-0.783548399239084,0.));
#794=DIRECTION('',(-0.621330754147796,-0.783548399239084,0.));
#795=DIRECTION('center_axis',(0.,-1.,0.));
#796=DIRECTION('ref_axis',(0.,0.,1.));
#797=DIRECTION('center_axis',(0.,1.,0.));
#798=DIRECTION('ref_axis',(1.,0.,3.5829765193709E-16));
#799=DIRECTION('',(-1.,0.,0.));
#800=DIRECTION('',(0.,0.,1.));
#801=DIRECTION('',(-1.,0.,0.));
#802=DIRECTION('',(0.,0.,1.));
#803=DIRECTION('',(-1.,0.,0.));
#804=DIRECTION('center_axis',(0.,1.,0.));
#805=DIRECTION('ref_axis',(-1.,0.,5.43695921089635E-17));
#806=DIRECTION('',(0.,0.,-1.));
#807=DIRECTION('',(1.,0.,0.));
#808=DIRECTION('',(0.,0.,-1.));
#809=DIRECTION('center_axis',(-0.621330754147796,-0.783548399239084,0.));
#810=DIRECTION('ref_axis',(-0.554052386489834,0.439347189617648,-0.707106781186543));
#811=DIRECTION('center_axis',(-0.621330754147798,-0.783548399239082,0.));
#812=DIRECTION('ref_axis',(-0.783548399239082,0.621330754147798,0.));
#813=DIRECTION('center_axis',(0.,0.,1.));
#814=DIRECTION('ref_axis',(1.,0.,0.));
#815=DIRECTION('center_axis',(-0.99051328079454,-0.137417031585018,0.));
#816=DIRECTION('ref_axis',(-0.137417031585018,0.990513280794539,0.));
#817=DIRECTION('center_axis',(-0.99051328079454,-0.137417031585017,0.));
#818=DIRECTION('ref_axis',(-0.0971685148842909,0.700398657705156,-0.707106781186546));
#819=DIRECTION('center_axis',(-0.990513280794539,-0.137417031585021,0.));
#820=DIRECTION('ref_axis',(-0.137417031585021,0.990513280794539,0.));
#821=DIRECTION('center_axis',(0.,0.,1.));
#822=DIRECTION('ref_axis',(1.,0.,0.));
#823=DIRECTION('center_axis',(-0.972230452134872,-0.234025528397274,0.));
#824=DIRECTION('ref_axis',(-0.234025528397274,0.972230452134871,0.));
#825=DIRECTION('center_axis',(0.,0.,-1.));
#826=DIRECTION('ref_axis',(-1.,0.,0.));
#827=DIRECTION('center_axis',(-0.509277734088507,0.860602224934189,0.));
#828=DIRECTION('ref_axis',(0.860602224934189,0.509277734088507,0.));
#829=DIRECTION('center_axis',(-0.509277734088507,0.860602224934189,0.));
#830=DIRECTION('ref_axis',(0.608537669155196,0.360113739281301,-0.707106781186548));
#831=DIRECTION('center_axis',(-1.,0.,0.));
#832=DIRECTION('ref_axis',(0.,0.707106781186548,0.707106781186547));
#833=DIRECTION('center_axis',(0.732577122255494,-0.680684038264347,0.));
#834=DIRECTION('ref_axis',(0.680684038264347,0.732577122255494,0.));
#835=DIRECTION('center_axis',(-0.680684038264347,-0.732577122255494,0.));
#836=DIRECTION('ref_axis',(-0.732577122255494,0.680684038264347,0.));
#837=DIRECTION('',(1.,0.,0.));
#838=DIRECTION('center_axis',(0.,0.,1.));
#839=DIRECTION('ref_axis',(0.399572247369393,-0.916701706735715,0.));
#840=DIRECTION('center_axis',(0.,0.,1.));
#841=DIRECTION('ref_axis',(0.399572247369393,-0.916701706735715,0.));
#842=DIRECTION('',(0.,0.,1.));
#843=DIRECTION('center_axis',(0.,0.,1.));
#844=DIRECTION('ref_axis',(0.399572247369393,-0.916701706735715,0.));
#845=DIRECTION('',(0.,0.,-1.));
#846=DIRECTION('center_axis',(-0.732577122255494,0.680684038264347,0.));
#847=DIRECTION('ref_axis',(-0.680684038264347,-0.732577122255494,0.));
#848=DIRECTION('',(-0.680684038264347,-0.732577122255494,0.));
#849=DIRECTION('',(0.680684038264347,0.732577122255494,0.));
#850=DIRECTION('center_axis',(0.,0.,1.));
#851=DIRECTION('ref_axis',(-0.365665747469261,-0.930746238846952,0.));
#852=DIRECTION('center_axis',(0.,0.,1.));
#853=DIRECTION('ref_axis',(-0.365665747469261,-0.930746238846952,0.));
#854=DIRECTION('',(0.,0.,1.));
#855=DIRECTION('center_axis',(0.,0.,1.));
#856=DIRECTION('ref_axis',(-0.365665747469261,-0.930746238846952,0.));
#857=DIRECTION('',(0.,0.,-1.));
#858=DIRECTION('center_axis',(0.,1.,0.));
#859=DIRECTION('ref_axis',(-1.,0.,0.));
#860=DIRECTION('',(1.,0.,0.));
#861=DIRECTION('',(-1.,0.,0.));
#862=DIRECTION('center_axis',(0.,0.,1.));
#863=DIRECTION('ref_axis',(1.,0.,0.));
#864=DIRECTION('',(-0.732577122255494,0.680684038264347,0.));
#865=DIRECTION('center_axis',(0.680684038264347,0.732577122255494,0.));
#866=DIRECTION('ref_axis',(-0.732577122255494,0.680684038264347,0.));
#867=DIRECTION('',(0.732577122255494,-0.680684038264347,0.));
#868=DIRECTION('center_axis',(0.,0.,1.));
#869=DIRECTION('ref_axis',(0.,1.,0.));
#870=DIRECTION('center_axis',(0.,0.,-1.));
#871=DIRECTION('ref_axis',(0.707106781186549,-0.707106781186546,0.));
#872=DIRECTION('',(0.,0.,-1.));
#873=DIRECTION('center_axis',(0.,0.,1.));
#874=DIRECTION('ref_axis',(0.707106781186549,-0.707106781186546,0.));
#875=DIRECTION('',(0.,0.,1.));
#876=DIRECTION('center_axis',(0.,0.,1.));
#877=DIRECTION('ref_axis',(0.,1.,0.));
#878=DIRECTION('',(-1.,0.,0.));
#879=DIRECTION('center_axis',(0.,0.,1.));
#880=DIRECTION('ref_axis',(-0.707106781186548,-0.707106781186548,0.));
#881=DIRECTION('',(0.,1.,0.));
#882=DIRECTION('',(0.,-1.,0.));
#883=DIRECTION('center_axis',(0.,1.,0.));
#884=DIRECTION('ref_axis',(0.,0.,-1.));
#885=DIRECTION('',(0.,0.,1.));
#886=DIRECTION('center_axis',(0.,0.,-1.));
#887=DIRECTION('ref_axis',(-0.707106781186548,-0.707106781186548,0.));
#888=DIRECTION('',(0.,0.,-1.));
#889=DIRECTION('center_axis',(-1.,0.,0.));
#890=DIRECTION('ref_axis',(0.,0.,1.));
#891=DIRECTION('center_axis',(1.,0.,0.));
#892=DIRECTION('ref_axis',(0.,0.,-1.));
#893=DIRECTION('',(0.,0.,1.));
#894=DIRECTION('',(1.,0.,0.));
#895=CARTESIAN_POINT('',(0.,0.,0.));
#896=CARTESIAN_POINT('',(0.,0.,0.));
#897=CARTESIAN_POINT('Origin',(-5.,24.9666299487085,2.65724600625774));
#898=CARTESIAN_POINT('',(-10.,24.9666299487085,1.03224600625774));
#899=CARTESIAN_POINT('Origin',(-10.,24.9666299487085,2.65724600625774));
#900=CARTESIAN_POINT('',(0.,24.9666299487085,1.03224600625774));
#901=CARTESIAN_POINT('',(-5.,24.9666299487085,1.03224600625774));
#902=CARTESIAN_POINT('Origin',(0.,24.9666299487085,2.65724600625774));
#903=CARTESIAN_POINT('Origin',(-10.,24.9666299487085,2.65724600625774));
#904=CARTESIAN_POINT('Origin',(0.249999999999999,15.,5.75));
#905=CARTESIAN_POINT('',(0.499999999999998,30.,6.));
#906=CARTESIAN_POINT('',(0.,30.,5.5));
#907=CARTESIAN_POINT('',(12.6249999999999,30.,18.125));
#908=CARTESIAN_POINT('',(0.,6.5,5.5));
#909=CARTESIAN_POINT('',(0.,15.,5.5));
#910=CARTESIAN_POINT('',(0.499999999999998,6.5,6.));
#911=CARTESIAN_POINT('',(0.,6.5,5.5));
#912=CARTESIAN_POINT('',(0.499999999999998,15.,6.));
#913=CARTESIAN_POINT('Origin',(6.5,6.5,5.75));
#914=CARTESIAN_POINT('',(6.5,0.,5.5));
#915=CARTESIAN_POINT('Origin',(6.5,6.5,5.5));
#916=CARTESIAN_POINT('',(6.5,0.499999999999998,6.));
#917=CARTESIAN_POINT('',(6.5,0.,5.5));
#918=CARTESIAN_POINT('Origin',(6.5,6.5,6.));
#919=CARTESIAN_POINT('Origin',(52.5,0.25,5.75));
#920=CARTESIAN_POINT('',(98.5,0.,5.5));
#921=CARTESIAN_POINT('',(98.5,0.5,6.));
#922=CARTESIAN_POINT('',(98.5,0.,5.5));
#923=CARTESIAN_POINT('',(52.5,0.5,6.));
#924=CARTESIAN_POINT('',(52.5,0.,5.5));
#925=CARTESIAN_POINT('Origin',(98.5,6.5,5.75));
#926=CARTESIAN_POINT('',(105.,6.5,5.5));
#927=CARTESIAN_POINT('Origin',(98.5,6.5,5.5));
#928=CARTESIAN_POINT('',(104.5,6.5,6.));
#929=CARTESIAN_POINT('',(105.,6.5,5.5));
#930=CARTESIAN_POINT('Origin',(98.5,6.5,6.));
#931=CARTESIAN_POINT('Origin',(104.75,15.,5.75));
#932=CARTESIAN_POINT('',(105.,30.,5.5));
#933=CARTESIAN_POINT('',(104.5,30.,6.));
#934=CARTESIAN_POINT('',(92.3749999999998,30.,18.125));
#935=CARTESIAN_POINT('',(104.5,15.,6.));
#936=CARTESIAN_POINT('',(105.,15.,5.5));
#937=CARTESIAN_POINT('Origin',(52.5,15.,6.));
#938=CARTESIAN_POINT('',(102.622482800359,30.,6.));
#939=CARTESIAN_POINT('',(52.5,30.,6.));
#940=CARTESIAN_POINT('',(92.2562705556494,16.9273668552662,6.));
#941=CARTESIAN_POINT('',(83.7395119389116,6.18704451277478,6.));
#942=CARTESIAN_POINT('',(89.9948107688602,15.6352280120026,6.));
#943=CARTESIAN_POINT('Origin',(89.5138511583126,19.1020244947835,6.));
#944=CARTESIAN_POINT('',(88.6587582960855,15.4498732384621,6.));
#945=CARTESIAN_POINT('',(53.7446369482999,10.6061270625772,6.));
#946=CARTESIAN_POINT('',(20.8878977822557,2.62446893369727,6.));
#947=CARTESIAN_POINT('Origin',(185.056805952975,-679.395193238907,6.));
#948=CARTESIAN_POINT('',(17.0567006455955,4.24480344685953,6.));
#949=CARTESIAN_POINT('Origin',(20.0688084328651,6.0272755161693,6.));
#950=CARTESIAN_POINT('',(1.81557325646913,30.,6.));
#951=CARTESIAN_POINT('',(11.7509116107355,13.2107831918886,6.));
#952=CARTESIAN_POINT('',(52.5,30.,6.));
#953=CARTESIAN_POINT('Origin',(12.0722692626469,14.1404112868864,6.75));
#954=CARTESIAN_POINT('',(2.97755026631997,30.,7.));
#955=CARTESIAN_POINT('',(2.39656176139455,30.,6.5));
#956=CARTESIAN_POINT('',(18.7647692163858,30.,20.5865157539498));
#957=CARTESIAN_POINT('',(17.4870017580626,4.49944231390379,6.5));
#958=CARTESIAN_POINT('',(12.1812127232026,13.4654220589329,6.5));
#959=CARTESIAN_POINT('',(17.9173028705297,4.75408118094804,7.));
#960=CARTESIAN_POINT('',(17.4870017580626,4.49944231390379,6.5));
#961=CARTESIAN_POINT('',(12.2874198188804,14.2677307204085,7.));
#962=CARTESIAN_POINT('Origin',(20.0688084328651,6.0272755161693,6.75));
#963=CARTESIAN_POINT('',(20.7708850180571,3.11058415976475,6.5));
#964=CARTESIAN_POINT('Origin',(20.0688084328651,6.0272755161693,6.5));
#965=CARTESIAN_POINT('',(20.6538722538584,3.59669938583217,7.));
#966=CARTESIAN_POINT('',(20.7708850180571,3.11058415976475,6.5));
#967=CARTESIAN_POINT('Origin',(20.0688084328651,6.0272755161693,7.));
#968=CARTESIAN_POINT('Origin',(185.056805952975,-679.395193238907,6.75));
#969=CARTESIAN_POINT('',(88.590049780293,15.9451298788595,6.5));
#970=CARTESIAN_POINT('Origin',(185.056805952975,-679.395193238907,6.5));
#971=CARTESIAN_POINT('',(88.5213412645005,16.4403865192568,7.));
#972=CARTESIAN_POINT('',(88.590049780293,15.9451298788595,6.5));
#973=CARTESIAN_POINT('Origin',(185.056805952975,-679.395193238907,7.));
#974=CARTESIAN_POINT('Origin',(53.5779111190264,11.3401798466746,6.75));
#975=CARTESIAN_POINT('',(89.9261022530677,16.1304846523999,6.5));
#976=CARTESIAN_POINT('',(89.8573937372752,16.6257412927971,7.));
#977=CARTESIAN_POINT('',(89.9261022530677,16.1304846523999,6.5));
#978=CARTESIAN_POINT('',(53.5435568611301,11.5878081668733,7.));
#979=CARTESIAN_POINT('',(53.6759284325074,11.1013837029745,6.5));
#980=CARTESIAN_POINT('Origin',(89.5138511583126,19.1020244947835,6.75));
#981=CARTESIAN_POINT('',(91.8644963560299,17.2380322323401,6.5));
#982=CARTESIAN_POINT('Origin',(89.5138511583126,19.1020244947835,6.5));
#983=CARTESIAN_POINT('',(91.4727221564104,17.548697609414,7.));
#984=CARTESIAN_POINT('',(91.8644963560299,17.2380322323401,6.5));
#985=CARTESIAN_POINT('Origin',(89.5138511583126,19.1020244947835,7.));
#986=CARTESIAN_POINT('Origin',(83.4075127399091,6.97545319173168,6.75));
#987=CARTESIAN_POINT('',(101.984360126016,30.,6.5));
#988=CARTESIAN_POINT('',(101.346237451672,30.,7.));
#989=CARTESIAN_POINT('',(81.6879591884095,30.,22.4032124649762));
#990=CARTESIAN_POINT('',(83.2116256400994,7.13078588026863,7.));
#991=CARTESIAN_POINT('',(83.347737739292,6.49770988984868,6.5));
#992=CARTESIAN_POINT('Origin',(52.5,30.,3.));
#993=CARTESIAN_POINT('Origin',(1.81557325646914,30.,6.5));
#994=CARTESIAN_POINT('',(30.,30.,7.));
#995=CARTESIAN_POINT('',(2.39656176139455,30.,7.));
#996=CARTESIAN_POINT('',(30.,30.,4.));
#997=CARTESIAN_POINT('',(30.,30.,6.));
#998=CARTESIAN_POINT('',(78.6146563690327,30.,4.));
#999=CARTESIAN_POINT('',(52.5,30.,4.));
#1000=CARTESIAN_POINT('',(78.6146563690327,30.,7.));
#1001=CARTESIAN_POINT('',(78.6146563690327,30.,6.));
#1002=CARTESIAN_POINT('',(105.,30.,7.));
#1003=CARTESIAN_POINT('Origin',(102.622482800359,30.,6.5));
#1004=CARTESIAN_POINT('',(105.,30.,0.));
#1005=CARTESIAN_POINT('',(105.,30.,3.));
#1006=CARTESIAN_POINT('',(0.,30.,0.));
#1007=CARTESIAN_POINT('',(52.5,30.,0.));
#1008=CARTESIAN_POINT('',(0.,30.,3.));
#1009=CARTESIAN_POINT('Origin',(83.7395119389116,6.18704451277478,6.5));
#1010=CARTESIAN_POINT('Origin',(92.2562705556494,16.9273668552662,6.5));
#1011=CARTESIAN_POINT('Origin',(89.5138511583126,19.1020244947835,6.5));
#1012=CARTESIAN_POINT('Origin',(89.9948107688602,15.6352280120026,6.5));
#1013=CARTESIAN_POINT('Origin',(53.7446369482999,10.6061270625772,6.5));
#1014=CARTESIAN_POINT('Origin',(88.6587582960855,15.4498732384621,6.5));
#1015=CARTESIAN_POINT('Origin',(185.056805952975,-679.395193238907,6.5));
#1016=CARTESIAN_POINT('Origin',(20.8878977822557,2.62446893369727,6.5));
#1017=CARTESIAN_POINT('Origin',(20.0688084328651,6.0272755161693,6.5));
#1018=CARTESIAN_POINT('Origin',(17.0567006455955,4.24480344685953,6.5));
#1019=CARTESIAN_POINT('Origin',(11.7509116107355,13.2107831918886,6.5));
#1020=CARTESIAN_POINT('Origin',(52.5,28.,4.));
#1021=CARTESIAN_POINT('',(76.756329054173,28.,6.));
#1022=CARTESIAN_POINT('Origin',(76.756329054173,28.,4.));
#1023=CARTESIAN_POINT('',(32.1524733388004,28.,6.));
#1024=CARTESIAN_POINT('Origin',(32.1524733388004,28.,4.));
#1025=CARTESIAN_POINT('',(52.5,28.,6.));
#1026=CARTESIAN_POINT('Origin',(73.6923589938796,29.109774268366,6.));
#1027=CARTESIAN_POINT('',(73.6923589938796,26.109774268366,6.));
#1028=CARTESIAN_POINT('',(75.8900903606461,27.067722153573,6.));
#1029=CARTESIAN_POINT('Origin',(73.6923589938796,29.109774268366,6.));
#1030=CARTESIAN_POINT('',(73.6923589938796,26.109774268366,7.));
#1031=CARTESIAN_POINT('',(73.6923589938796,26.109774268366,6.));
#1032=CARTESIAN_POINT('',(75.8900903606461,27.067722153573,7.));
#1033=CARTESIAN_POINT('Origin',(73.6923589938796,29.109774268366,7.));
#1034=CARTESIAN_POINT('',(75.8900903606461,27.067722153573,6.));
#1035=CARTESIAN_POINT('Origin',(78.6146563690327,30.,6.));
#1036=CARTESIAN_POINT('',(75.,26.109774268366,7.));
#1037=CARTESIAN_POINT('',(68.8248929240351,19.46389759574,6.));
#1038=CARTESIAN_POINT('Origin',(35.3654247776262,29.109774268366,6.));
#1039=CARTESIAN_POINT('',(33.3233726628332,26.9120429015996,6.));
#1040=CARTESIAN_POINT('',(35.3654247776262,26.109774268366,6.));
#1041=CARTESIAN_POINT('Origin',(35.3654247776262,29.109774268366,6.));
#1042=CARTESIAN_POINT('',(33.3233726628332,26.9120429015996,7.));
#1043=CARTESIAN_POINT('',(33.3233726628332,26.9120429015996,6.));
#1044=CARTESIAN_POINT('',(35.3654247776262,26.109774268366,7.));
#1045=CARTESIAN_POINT('Origin',(35.3654247776262,29.109774268366,7.));
#1046=CARTESIAN_POINT('',(35.3654247776262,26.109774268366,6.));
#1047=CARTESIAN_POINT('Origin',(75.,26.109774268366,6.));
#1048=CARTESIAN_POINT('',(63.75,26.109774268366,6.));
#1049=CARTESIAN_POINT('',(34.1868035846287,26.109774268366,7.));
#1050=CARTESIAN_POINT('Origin',(52.1904609437051,16.2957415618133,7.));
#1051=CARTESIAN_POINT('',(30.,30.,7.));
#1052=CARTESIAN_POINT('Origin',(34.1868035846287,26.109774268366,6.));
#1053=CARTESIAN_POINT('',(41.870832397278,18.9700539530085,6.));
#1054=CARTESIAN_POINT('Origin',(52.5,15.,6.));
#1055=CARTESIAN_POINT('Origin',(98.5,6.5,3.));
#1056=CARTESIAN_POINT('',(98.5,0.,0.));
#1057=CARTESIAN_POINT('',(98.5,0.,3.));
#1058=CARTESIAN_POINT('',(105.,6.5,0.));
#1059=CARTESIAN_POINT('Origin',(98.5,6.5,0.));
#1060=CARTESIAN_POINT('',(105.,6.5,3.));
#1061=CARTESIAN_POINT('Origin',(52.5,15.,0.));
#1062=CARTESIAN_POINT('',(6.5,0.,0.));
#1063=CARTESIAN_POINT('',(52.5,0.,0.));
#1064=CARTESIAN_POINT('',(0.,6.5,0.));
#1065=CARTESIAN_POINT('Origin',(6.5,6.5,0.));
#1066=CARTESIAN_POINT('',(0.,15.,0.));
#1067=CARTESIAN_POINT('',(105.,15.,0.));
#1068=CARTESIAN_POINT('Origin',(52.5,0.,3.));
#1069=CARTESIAN_POINT('',(6.5,0.,3.));
#1070=CARTESIAN_POINT('Origin',(6.5,6.5,3.));
#1071=CARTESIAN_POINT('',(0.,6.5,3.));
#1072=CARTESIAN_POINT('Origin',(105.,15.,3.));
#1073=CARTESIAN_POINT('Origin',(0.,15.,3.));
#1074=CARTESIAN_POINT('',(0.,0.,0.));
#1075=UNCERTAINTY_MEASURE_WITH_UNIT(LENGTH_MEASURE(0.01),#1081,
'DISTANCE_ACCURACY_VALUE',
'Maximum model space distance between geometric entities at asserted c
onnectivities');
#1076=UNCERTAINTY_MEASURE_WITH_UNIT(LENGTH_MEASURE(0.01),#1081,
'DISTANCE_ACCURACY_VALUE',
'Maximum model space distance between geometric entities at asserted c
onnectivities');
#1077=UNCERTAINTY_MEASURE_WITH_UNIT(LENGTH_MEASURE(0.01),#1081,
'DISTANCE_ACCURACY_VALUE',
'Maximum model space distance between geometric entities at asserted c
onnectivities');
#1078=(
GEOMETRIC_REPRESENTATION_CONTEXT(3)
GLOBAL_UNCERTAINTY_ASSIGNED_CONTEXT((#1075))
GLOBAL_UNIT_ASSIGNED_CONTEXT((#1081,#1083,#1084))
REPRESENTATION_CONTEXT('','3D')
);
#1079=(
GEOMETRIC_REPRESENTATION_CONTEXT(3)
GLOBAL_UNCERTAINTY_ASSIGNED_CONTEXT((#1076))
GLOBAL_UNIT_ASSIGNED_CONTEXT((#1081,#1083,#1084))
REPRESENTATION_CONTEXT('','3D')
);
#1080=(
GEOMETRIC_REPRESENTATION_CONTEXT(3)
GLOBAL_UNCERTAINTY_ASSIGNED_CONTEXT((#1077))
GLOBAL_UNIT_ASSIGNED_CONTEXT((#1081,#1083,#1084))
REPRESENTATION_CONTEXT('','3D')
);
#1081=(
LENGTH_UNIT()
NAMED_UNIT(*)
SI_UNIT(.MILLI.,.METRE.)
);
#1082=(
LENGTH_UNIT()
NAMED_UNIT(*)
SI_UNIT($,.METRE.)
);
#1083=(
NAMED_UNIT(*)
PLANE_ANGLE_UNIT()
SI_UNIT($,.RADIAN.)
);
#1084=(
NAMED_UNIT(*)
SI_UNIT($,.STERADIAN.)
SOLID_ANGLE_UNIT()
);
#1085=SHAPE_DEFINITION_REPRESENTATION(#1087,#1090);
#1086=SHAPE_DEFINITION_REPRESENTATION(#1088,#1091);
#1087=PRODUCT_DEFINITION_SHAPE('',$,#1093);
#1088=PRODUCT_DEFINITION_SHAPE('',$,#1094);
#1089=PRODUCT_DEFINITION_SHAPE($,$,#14);
#1090=SHAPE_REPRESENTATION('',(#634,#701),#1078);
#1091=SHAPE_REPRESENTATION('',(#635),#1079);
#1092=PRODUCT_DEFINITION_CONTEXT('part definition',#1100,'design');
#1093=PRODUCT_DEFINITION('HereLink Antenna v2','HereLink Antenna v2 v2',
#1095,#1092);
#1094=PRODUCT_DEFINITION('Component2','Component2',#1096,#1092);
#1095=PRODUCT_DEFINITION_FORMATION('',$,#1102);
#1096=PRODUCT_DEFINITION_FORMATION('',$,#1103);
#1097=PRODUCT_RELATED_PRODUCT_CATEGORY('HereLink Antenna v2 v2',
'HereLink Antenna v2 v2',(#1102));
#1098=PRODUCT_RELATED_PRODUCT_CATEGORY('Component2','Component2',(#1103));
#1099=APPLICATION_PROTOCOL_DEFINITION('international standard',
'automotive_design',2009,#1100);
#1100=APPLICATION_CONTEXT(
'Core Data for Automotive Mechanical Design Process');
#1101=PRODUCT_CONTEXT('part definition',#1100,'mechanical');
#1102=PRODUCT('HereLink Antenna v2','HereLink Antenna v2 v2',$,(#1101));
#1103=PRODUCT('Component2','Component2',$,(#1101));
#1104=PRESENTATION_STYLE_ASSIGNMENT((#1106));
#1105=PRESENTATION_STYLE_ASSIGNMENT((#1107));
#1106=SURFACE_STYLE_USAGE(.BOTH.,#1108);
#1107=SURFACE_STYLE_USAGE(.BOTH.,#1109);
#1108=SURFACE_SIDE_STYLE('',(#1110));
#1109=SURFACE_SIDE_STYLE('',(#1111));
#1110=SURFACE_STYLE_FILL_AREA(#1112);
#1111=SURFACE_STYLE_FILL_AREA(#1113);
#1112=FILL_AREA_STYLE('ABS (White)',(#1114));
#1113=FILL_AREA_STYLE('Powder Coat (Black)',(#1115));
#1114=FILL_AREA_STYLE_COLOUR('ABS (White)',#1116);
#1115=FILL_AREA_STYLE_COLOUR('Powder Coat (Black)',#1117);
#1116=COLOUR_RGB('ABS (White)',0.164705882352941,0.305882352941176,0.313725490196078);
#1117=COLOUR_RGB('Powder Coat (Black)',0.219607843137255,0.196078431372549,
0.196078431372549);
ENDSEC;
END-ISO-10303-21;
